<svg width="261" height="101" viewBox="0 0 261 101" fill="none" xmlns="http://www.w3.org/2000/svg">
<path d="M0 29C0 46.0638 12.8028 58 29.8732 58C46.9436 58 59.6627 46.0638 59.6627 29C59.6627 11.9362 46.9436 0 29.8732 0C12.8028 0 0 11.9362 0 29ZM45.019 29C45.019 38.0783 39.0778 45.2232 29.8732 45.2232C20.5849 45.2232 14.6437 38.0783 14.6437 29C14.6437 19.8377 20.5849 12.7768 29.8732 12.7768C39.0778 12.7768 45.019 19.8377 45.019 29Z" fill="#F7F6F7"/>
<path d="M66.9113 56.9913H103.73V44.3826H81.304L81.304 0.924636L66.9113 0.924636L66.9113 56.9913Z" fill="#F7F6F7"/>
<path d="M106.314 29C106.314 46.0638 119.117 58 136.187 58C153.258 58 165.977 46.0638 165.977 29C165.977 11.9362 153.258 0 136.187 0C119.117 0 106.314 11.9362 106.314 29ZM151.333 29C151.333 38.0783 145.392 45.2232 136.187 45.2232C126.899 45.2232 120.958 38.0783 120.958 29C120.958 19.8377 126.899 12.7768 136.187 12.7768C145.392 12.7768 151.333 19.8377 151.333 29Z" fill="#F7F6F7"/>
<path d="M222.177 56.9913H236.57V0.924636L216.571 0.924636L204.856 32.6986L193.224 0.924636L173.225 0.924636V56.9913H187.618V19.1652L201.676 56.9913H208.036L222.177 19.1652V56.9913Z" fill="#F7F6F7"/>
<path d="M246.607 56.9913H261V0.924636L246.607 0.924636V56.9913Z" fill="#F7F6F7"/>
<path d="M18.1746 100.567H23.4108L14.7288 78.3661H8.7157L0 100.567H5.26996L6.68879 96.7395H16.7558L18.1746 100.567ZM11.7223 82.4602L15.4383 92.6454H7.9725L11.7223 82.4602Z" fill="#F7F6F7"/>
<path d="M25.4915 100.567H30.2885V91.314H41.2V87.2533H30.2885V82.4269H41.4365V78.3661H25.4915V100.567Z" fill="#F7F6F7"/>
<path d="M43.7096 89.4834C43.7096 96.4732 49.1147 101 55.263 101C62.4923 101 66.8502 96.2069 66.8502 88.3184H54.5536V92.3792H61.614C61.0059 94.7091 59.0128 96.7728 55.7022 96.7728C51.6146 96.7728 48.6418 93.6773 48.6418 89.4834C48.6418 85.2894 51.6146 82.1939 55.7022 82.1939C58.0669 82.1939 59.9925 83.4255 61.0397 84.9899L65.0259 82.8596C63.3031 80.2301 60.364 78 55.7022 78C49.1147 78 43.7096 82.4602 43.7096 89.4834Z" fill="#F7F6F7"/>
<path d="M85.3673 100.567H90.1981V78.3661H85.3673V87.0868H74.7261V78.3661H69.929V100.567H74.7261V91.2475H85.3673V100.567Z" fill="#F7F6F7"/>
<path d="M110.415 100.567H115.651L106.969 78.3661H100.956L92.24 100.567H97.51L98.9288 96.7395H108.996L110.415 100.567ZM103.962 82.4602L107.678 92.6454H100.213L103.962 82.4602Z" fill="#F7F6F7"/>
<path d="M133.271 100.567H137.899V78.3661H133.102V92.7453L122.664 78.3661H117.732V100.567H122.529V85.6556L133.271 100.567Z" fill="#F7F6F7"/>
<path d="M166.762 100.567H171.998L163.316 78.3661H157.303L148.587 100.567H153.857L155.276 96.7395H165.343L166.762 100.567ZM160.309 82.4602L164.025 92.6454H156.559L160.309 82.4602Z" fill="#F7F6F7"/>
<path d="M186.814 100.567H192.321L187.253 92.1129C189.686 91.547 192.186 89.4501 192.186 85.5224C192.186 81.3951 189.314 78.3661 184.618 78.3661H174.078V100.567H178.875V92.6122H182.389L186.814 100.567ZM187.287 85.4891C187.287 87.3531 185.835 88.5514 183.909 88.5514H178.875V82.4269H183.909C185.835 82.4269 187.287 83.6252 187.287 85.4891Z" fill="#F7F6F7"/>
<path d="M200.658 100.567H205.489V82.5268H212.043V78.3661H194.071V82.5268H200.658V100.567Z" fill="#F7F6F7"/>
<path d="M215.118 100.567H219.915V78.3661H215.118V100.567Z" fill="#F7F6F7"/>
<path d="M222.868 97.4385C224.963 99.5355 228.07 100.967 232.395 100.967C238.475 100.967 241.414 97.9045 241.414 93.8437C241.414 88.9175 236.685 87.8191 232.969 86.987C230.368 86.3878 228.476 85.9219 228.476 84.424C228.476 83.0926 229.624 82.1606 231.786 82.1606C233.982 82.1606 236.415 82.9262 238.239 84.5904L240.908 81.1288C238.678 79.0984 235.705 78.0333 232.124 78.0333C226.821 78.0333 223.577 81.0289 223.577 84.7236C223.577 89.6831 228.307 90.6816 231.989 91.5137C234.59 92.1129 236.55 92.6787 236.55 94.343C236.55 95.6078 235.266 96.8394 232.631 96.8394C229.523 96.8394 227.057 95.4747 225.469 93.8437L222.868 97.4385Z" fill="#F7F6F7"/>
<path d="M249.616 100.567H254.446V82.5268H261V78.3661H243.028V82.5268H249.616V100.567Z" fill="#F7F6F7"/>
</svg>
